# xmcd
# 
# Track frame offsets:
#     150
#     27891
#     47288
#     74848
#     97959
#     121004
#     145677
#     170865
#     188726
#     218980
# 
# Disc length: 3170
# 
# Revision: 0
# Processed by: cddbd v1.5.2PL0 Copyright (c) Steve Scherf et al.
# Submitted via: fre:ac v1.0.31
# 
DISCID=8a0c600a
DTITLE=Davide Van De Sfroos - Geometrie Di Volo - "PICA!"Tour [CD2)
DYEAR=2009
DGENRE=Folk
TTITLE0=Lo Sciamano
TTITLE1=El Puunt
TTITLE2=Grand Hotel
TTITLE3=Ventanas
TTITLE4=Il Minatore Di Frontale
TTITLE5=Il Paradiso Dello Scorpione
TTITLE6=Il Costruttore Di Motoscafi
TTITLE7=El Diavul
TTITLE8=El Fantasma Del Laagh
TTITLE9=El Mustru
EXTD=
EXTT0=
EXTT1=
EXTT2=
EXTT3=
EXTT4=
EXTT5=
EXTT6=
EXTT7=
EXTT8=
EXTT9=
PLAYORDER=
